HIERARCHY
ROOT joint_Root
{
	OFFSET 0.0 0.0 0.0
	CHANNELS 6 Xposition Yposition Zposition Zrotation Xrotation Yrotation 
	JOINT Hips
	{
		OFFSET -17.1583 93.1646 452.98
		CHANNELS 6 Xposition Yposition Zposition Zrotation Xrotation Yrotation 
		JOINT Spine
		{
			OFFSET 15.7357 0.0 0.0
			CHANNELS 6 Xposition Yposition Zposition Zrotation Xrotation Yrotation 
			JOINT Chest
			{
				OFFSET 8.98455 -0.406207 0.0
				CHANNELS 6 Xposition Yposition Zposition Zrotation Xrotation Yrotation 
				JOINT Neck
				{
					OFFSET 16.3773 0.0 0.0
					CHANNELS 6 Xposition Yposition Zposition Zrotation Xrotation Yrotation 
					JOINT Head
					{
						OFFSET 6.45672 0.0 0.0
						CHANNELS 6 Xposition Yposition Zposition Zrotation Xrotation Yrotation 
						End Site
						{
							OFFSET 0.0 0.0 0.0
						}
					}
				}
				JOINT Shoulder_L
				{
					OFFSET 12.9942 -0.242716 4.98039
					CHANNELS 6 Xposition Yposition Zposition Zrotation Xrotation Yrotation 
					JOINT UpperArm_L
					{
						OFFSET 5.34809 0.0 0.0
						CHANNELS 6 Xposition Yposition Zposition Zrotation Xrotation Yrotation 
						JOINT LowerArm_L
						{
							OFFSET 24.3286 1.87007e-05 0.0
							CHANNELS 6 Xposition Yposition Zposition Zrotation Xrotation Yrotation 
							JOINT Hand_L
							{
								OFFSET 22.2916 0.0 0.0
								CHANNELS 6 Xposition Yposition Zposition Zrotation Xrotation Yrotation 
								End Site
								{
									OFFSET 0.0 0.0 0.0
								}
							}
						}
					}
				}
				JOINT Shoulder_R
				{
					OFFSET 12.9945 -0.242716 -4.98039
					CHANNELS 6 Xposition Yposition Zposition Zrotation Xrotation Yrotation 
					JOINT UpperArm_R
					{
						OFFSET -5.34813 0.0 0.0
						CHANNELS 6 Xposition Yposition Zposition Zrotation Xrotation Yrotation 
						JOINT LowerArm_R
						{
							OFFSET -24.3289 0.000322201 0.0
							CHANNELS 6 Xposition Yposition Zposition Zrotation Xrotation Yrotation 
							JOINT Hand_R
							{
								OFFSET -22.2915 -0.000108084 0.0
								CHANNELS 6 Xposition Yposition Zposition Zrotation Xrotation Yrotation 
								End Site
								{
									OFFSET 0.0 0.0 0.0
								}
							}
						}
					}
				}
			}
		}
		JOINT UpperLeg_L
		{
			OFFSET -2.19248 -6.46944 0.0
			CHANNELS 6 Xposition Yposition Zposition Zrotation Xrotation Yrotation 
			JOINT LowerLeg_L
			{
				OFFSET 39.0811 0.0 -1.23785e-05
				CHANNELS 6 Xposition Yposition Zposition Zrotation Xrotation Yrotation 
				JOINT Foot_L
				{
					OFFSET 40.9854 0.0 -1.26872e-05
					CHANNELS 6 Xposition Yposition Zposition Zrotation Xrotation Yrotation 
					JOINT Toes_L
					{
						OFFSET 11.7543 0.0 0.0
						CHANNELS 6 Xposition Yposition Zposition Zrotation Xrotation Yrotation 
						End Site
						{
							OFFSET 0.0 0.0 0.0
						}
					}
				}
			}
		}
		JOINT UpperLeg_R
		{
			OFFSET -2.19251 6.46944 0.0
			CHANNELS 6 Xposition Yposition Zposition Zrotation Xrotation Yrotation 
			JOINT LowerLeg_R
			{
				OFFSET -39.0811 -0.00228153 -0.0401928
				CHANNELS 6 Xposition Yposition Zposition Zrotation Xrotation Yrotation 
				JOINT Foot_R
				{
					OFFSET -40.9854 0.0 0.0
					CHANNELS 6 Xposition Yposition Zposition Zrotation Xrotation Yrotation 
					JOINT Toes_R
					{
						OFFSET -11.7543 0.0 0.0
						CHANNELS 6 Xposition Yposition Zposition Zrotation Xrotation Yrotation 
						End Site
						{
							OFFSET 0.0 0.0 0.0
						}
					}
				}
			}
		}
	}
}
MOTION
Frames:	8
Frame Time:	0.0333333
0.000000 0.000000 0.000000 0.000000 0.000000 -0.000000 -0.439950 87.814200 -463.723000 82.369200 2.734720 -21.062500 15.735700 0.000005 -0.000001 53.870900 83.970900 -49.613900 8.984550 -0.406207 -0.000000 2.277060 -7.308250 8.660750 16.377300 -0.000001 -0.000001 -7.175150 5.927910 -1.889540 6.456720 -0.000001 -0.000000 -15.852000 11.149300 -0.666038 12.994200 -0.242716 4.980390 -92.238600 8.085030 -74.467100 5.348090 -0.000007 -0.000001 -69.122200 -23.510700 -3.904220 24.328600 0.000019 0.000005 56.244800 4.651960 -86.896100 22.291600 -0.000001 0.000005 50.093300 3.882400 25.870600 12.994500 -0.242716 -4.980390 89.630900 1.145590 -72.141100 -5.348130 -0.000001 -0.000004 -55.181600 -21.022300 25.337000 -24.328900 0.000322 -0.000009 0.714365 2.215640 -17.919100 -22.291500 -0.000108 -0.000004 53.237100 5.384690 -2.447170 -2.192480 -6.469440 -0.000000 -169.959000 -8.456600 4.616630 39.081100 -0.000007 -0.000012 0.001436 -0.008170 9.976560 40.985400 -0.000006 -0.000013 0.665270 15.412100 -66.783800 11.754300 -0.000000 0.000003 -0.046117 -0.283644 -28.247600 -2.192510 6.469440 -0.000001 -176.221000 -11.087200 124.730000 -39.081100 -0.002282 -0.040193 0.007883 -0.005513 39.866600 -40.985400 0.000008 0.000006 -7.863860 -9.913290 -80.186200 -11.754300 -0.000006 -0.000006 -0.000651 0.177982 -9.353860
0.000000 0.000000 0.000000 0.000000 0.000000 -0.000000 -0.673311 86.618000 -456.592000 82.277700 3.538750 -22.281500 15.735700 0.000005 -0.000001 49.027600 84.415900 -44.330300 8.984550 -0.406207 -0.000000 1.007090 -7.596820 9.465330 16.377300 -0.000001 -0.000001 -7.381480 5.946550 -2.092740 6.456720 -0.000001 -0.000000 -15.417300 11.536100 -1.315560 12.994200 -0.242716 4.980390 -92.456400 8.952210 -74.587400 5.348090 -0.000007 -0.000001 -69.997000 -20.807500 -1.169090 24.328600 0.000019 0.000005 55.582300 9.594910 -83.488000 22.291600 -0.000001 0.000005 49.700700 3.968140 24.680300 12.994500 -0.242716 -4.980390 89.454500 1.684940 -72.058800 -5.348130 -0.000001 -0.000004 -54.420700 -23.169800 24.918200 -24.328900 0.000322 -0.000009 0.304854 0.834681 -20.117000 -22.291500 -0.000108 -0.000004 55.801200 5.381040 -2.335410 -2.192480 -6.469440 -0.000000 -169.856000 -7.602900 2.542240 39.081100 -0.000007 -0.000012 0.001387 -0.004350 17.690600 40.985400 -0.000006 -0.000013 2.804100 13.037600 -61.108700 11.754300 -0.000000 0.000003 -0.146841 -0.548474 -39.753900 -2.192510 6.469440 -0.000001 -173.550000 -8.781870 124.796000 -39.081100 -0.002282 -0.040193 0.119789 -0.121218 43.868300 -40.985400 0.000008 0.000006 -5.925670 -8.971100 -74.963100 -11.754300 -0.000006 -0.000006 0.000199 0.164258 -9.911270
0.000000 0.000000 0.000000 0.000000 0.000000 -0.000000 -0.727313 85.351000 -448.973000 82.406600 4.075480 -20.946700 15.735700 0.000005 -0.000001 52.370400 84.185600 -47.374200 8.984550 -0.406207 -0.000000 1.799670 -7.355600 10.110400 16.377300 -0.000001 -0.000001 -7.877970 5.853410 -2.510920 6.456720 -0.000001 -0.000000 -15.780000 11.563800 -2.311340 12.994200 -0.242716 4.980390 -92.753600 10.104100 -74.669000 5.348090 -0.000007 -0.000001 -71.070000 -19.444800 0.888021 24.328600 0.000019 0.000005 55.690800 17.921600 -78.139800 22.291600 -0.000001 0.000005 49.662300 4.026280 23.849500 12.994500 -0.242716 -4.980390 89.198100 2.463540 -71.962100 -5.348130 -0.000001 -0.000004 -56.173300 -24.258300 21.201300 -24.328900 0.000322 -0.000009 0.613278 1.502860 -22.232500 -22.291500 -0.000108 -0.000004 57.161800 5.386320 -2.497340 -2.192480 -6.469440 -0.000000 -170.368000 -4.813240 0.040125 39.081100 -0.000007 -0.000012 -0.005198 0.009179 29.523100 40.985400 -0.000006 -0.000013 3.543620 8.975310 -50.885200 11.754300 -0.000000 0.000003 -0.195555 -0.637680 -43.875700 -2.192510 6.469440 -0.000001 -171.741000 -6.715010 127.425000 -39.081100 -0.002282 -0.040193 -0.010433 0.011116 50.896900 -40.985400 0.000008 0.000006 -6.143070 -7.326050 -77.529400 -11.754300 -0.000006 -0.000006 -0.004013 0.219245 -7.675480
0.000000 0.000000 0.000000 0.000000 0.000000 -0.000000 -0.692312 83.986100 -441.632000 82.110800 3.027230 -18.008800 15.735700 0.000005 -0.000001 63.769700 83.505800 -58.763800 8.984550 -0.406207 -0.000000 4.180410 -5.888050 10.223400 16.377300 -0.000001 -0.000001 -8.337260 5.745140 -2.300060 6.456720 -0.000001 -0.000000 -16.731500 11.391500 -3.260390 12.994200 -0.242716 4.980390 -93.084500 11.028600 -74.268200 5.348090 -0.000007 -0.000001 -70.782500 -20.804400 3.051880 24.328600 0.000019 0.000005 49.467500 22.780400 -71.678100 22.291600 -0.000001 0.000005 46.720800 4.056720 23.415100 12.994500 -0.242716 -4.980390 88.947600 3.266570 -72.131400 -5.348130 -0.000001 -0.000004 -60.704200 -22.165300 13.987700 -24.328900 0.000322 -0.000009 0.640925 1.404210 -24.585300 -22.291500 -0.000108 -0.000004 58.083000 5.395120 -2.777390 -2.192480 -6.469440 -0.000000 -170.294000 -4.679170 -5.660150 39.081100 -0.000007 -0.000012 0.054272 -0.049910 47.395900 40.985400 -0.000006 -0.000013 -2.276870 6.823890 -36.399200 11.754300 -0.000000 0.000003 -0.000067 -0.001123 -16.623100 -2.192510 6.469440 -0.000001 -170.370000 -6.367470 132.980000 -39.081100 -0.002282 -0.040193 -0.022970 0.017210 56.688700 -40.985400 0.000008 0.000006 -5.674120 -5.790080 -83.298000 -11.754300 -0.000006 -0.000006 -0.006128 0.239658 -6.843540
0.000000 0.000000 0.000000 0.000000 0.000000 -0.000000 -0.868534 82.953500 -435.007000 81.212400 1.762870 -16.341400 15.735700 0.000005 -0.000001 74.094000 83.415300 -69.171900 8.984550 -0.406207 -0.000000 5.086640 -3.716280 10.001400 16.377300 -0.000001 -0.000001 -7.801050 5.456060 -1.815900 6.456720 -0.000001 -0.000000 -16.210900 10.157300 -2.982160 12.994200 -0.242716 4.980390 -93.280300 11.164200 -73.510300 5.348090 -0.000007 -0.000001 -67.910200 -25.239700 6.949760 24.328600 0.000019 0.000005 49.430500 24.852200 -70.210700 22.291600 -0.000001 0.000005 48.067300 4.049020 23.521000 12.994500 -0.242716 -4.980390 88.533200 4.490530 -71.889700 -5.348130 -0.000001 -0.000004 -64.334200 -17.059300 6.685810 -24.328900 0.000322 -0.000009 0.248073 0.444972 -29.337100 -22.291500 -0.000108 -0.000004 58.783300 5.408250 -3.208700 -2.192480 -6.469440 -0.000000 -169.261000 -5.580630 -15.026700 39.081100 -0.000007 -0.000012 0.228784 -0.098434 66.719100 40.985400 -0.000006 -0.000013 -9.110800 8.181150 -31.206200 11.754300 -0.000000 0.000003 0.002382 0.066576 -13.876500 -2.192510 6.469440 -0.000001 -168.831000 -6.185420 138.880000 -39.081100 -0.002282 -0.040193 -0.030841 0.020400 59.070800 -40.985400 0.000008 0.000006 -5.567060 -3.525040 -88.061700 -11.754300 -0.000006 -0.000006 -0.003606 0.214949 -7.850430
0.000000 0.000000 0.000000 0.000000 0.000000 -0.000000 -0.809729 82.992100 -428.813000 81.161600 0.079210 -15.688500 15.735700 0.000005 -0.000001 85.062500 83.476500 -80.491100 8.984550 -0.406207 -0.000000 5.298650 -1.218270 9.189120 16.377300 -0.000001 -0.000001 -7.037500 5.144400 -1.733390 6.456720 -0.000001 -0.000000 -15.295700 8.349860 -3.036230 12.994200 -0.242716 4.980390 -93.328700 10.695700 -72.599500 5.348090 -0.000007 -0.000001 -62.492300 -31.026700 11.289700 24.328600 0.000019 0.000005 49.048100 24.094700 -70.492600 22.291600 -0.000001 0.000005 48.860200 3.950490 24.924400 12.994500 -0.242716 -4.980390 88.341300 5.126660 -72.044200 -5.348130 -0.000001 -0.000004 -66.872200 -12.937300 1.082490 -24.328900 0.000322 -0.000009 1.658200 2.028460 -39.139700 -22.291500 -0.000108 -0.000004 58.232900 5.416660 -3.486670 -2.192480 -6.469440 -0.000000 -170.144000 -6.525820 -25.677000 39.081100 -0.000007 -0.000012 0.271165 -0.036315 82.370600 40.985400 -0.000006 -0.000013 -9.630400 10.745400 -37.491400 11.754300 -0.000000 0.000003 0.002397 0.067862 -13.824400 -2.192510 6.469440 -0.000001 -168.748000 -5.243480 145.215000 -39.081100 -0.002282 -0.040193 -0.033284 0.023036 57.741200 -40.985400 0.000008 0.000006 -4.954750 -0.538968 -89.929500 -11.754300 -0.000006 -0.000006 -0.000836 0.180715 -9.242800
0.000000 0.000000 0.000000 0.000000 0.000000 -0.000000 -0.538845 84.151600 -422.596000 82.548500 -1.018200 -15.433000 15.735700 0.000005 -0.000001 93.926500 83.278100 -90.128800 8.984550 -0.406207 -0.000000 5.629910 0.847966 7.545090 16.377300 -0.000001 -0.000001 -6.849980 4.419990 -1.329400 6.456720 -0.000001 -0.000000 -14.959500 6.598540 -3.323640 12.994200 -0.242716 4.980390 -93.235100 10.142800 -72.204900 5.348090 -0.000007 -0.000001 -55.376200 -36.418200 14.773600 24.328600 0.000019 0.000005 47.909100 22.589400 -70.864800 22.291600 -0.000001 0.000005 49.347200 3.857290 26.218600 12.994500 -0.242716 -4.980390 88.427100 4.989280 -72.477600 -5.348130 -0.000001 -0.000004 -68.423400 -8.578930 -3.040950 -24.328900 0.000322 -0.000009 5.304000 4.099750 -52.375500 -22.291500 -0.000108 -0.000004 57.777200 5.389620 -2.599790 -2.192480 -6.469440 -0.000000 -173.009000 -5.864420 -36.422800 39.081100 -0.000007 -0.000012 0.206000 0.005931 91.646500 40.985400 -0.000006 -0.000013 -8.731170 7.488970 -44.913500 11.754300 -0.000000 0.000003 0.002389 0.067142 -13.853600 -2.192510 6.469440 -0.000001 -170.427000 -3.925150 152.079000 -39.081100 -0.002282 -0.040193 -0.027942 0.023206 53.337400 -40.985400 0.000008 0.000006 -4.461920 1.345410 -88.439700 -11.754300 -0.000006 -0.000006 0.002191 0.112820 -11.998200
0.000000 0.000000 0.000000 0.000000 0.000000 -0.000000 0.026675 86.333600 -415.858000 85.252400 -1.454940 -15.408100 15.735700 0.000005 -0.000001 97.720300 83.076100 -95.141300 8.984550 -0.406207 -0.000000 5.922860 1.814020 5.058520 16.377300 -0.000001 -0.000001 -6.892080 3.608400 -0.601171 6.456720 -0.000001 -0.000000 -14.831500 5.002390 -2.863360 12.994200 -0.242716 4.980390 -93.024500 9.371550 -72.022800 5.348090 -0.000007 -0.000001 -47.761300 -39.690600 18.564700 24.328600 0.000019 0.000005 49.569100 21.627500 -72.566100 22.291600 -0.000001 0.000005 49.143100 3.775380 27.333200 12.994500 -0.242716 -4.980390 88.563300 4.624200 -72.719100 -5.348130 -0.000001 -0.000004 -68.778800 -4.323000 -6.907930 -24.328900 0.000322 -0.000009 7.012710 3.303420 -64.905300 -22.291500 -0.000108 -0.000004 56.091300 5.372840 -2.071620 -2.192480 -6.469440 -0.000000 -177.599000 -3.261360 -44.829900 39.081100 -0.000007 -0.000012 -0.043626 -0.002284 93.009600 40.985400 -0.000006 -0.000013 -4.382440 1.623400 -53.136600 11.754300 -0.000000 0.000003 0.002403 0.068406 -13.802300 -2.192510 6.469440 -0.000001 -173.685000 -2.799560 160.388000 -39.081100 -0.002282 -0.040193 -0.017681 0.021025 44.892500 -40.985400 0.000008 0.000006 -4.108970 1.884150 -83.484400 -11.754300 -0.000006 -0.000006 0.000667 0.012096 -16.082700
